# xmcd
#
# Track frame offsets:
#	150
#	16275
#	26475
#	39975
#	59700
#	72825
#	88275
#	103875
#
# Disc length: 1634 seconds
#
# Revision: 0
# Processed by: cddbd v1.4PL0 Copyright (c) Steve Scherf et al.
# Submitted via: audiograbber 1.82.02
#
DISCID=6a066008
DTITLE=Various Artist - DKK USA-10
DYEAR=1992
DGENRE=Country
TTITLE0=Rogers, Kenny - Gambler
TTITLE1=Cline, Patsy - I Fall To Pieces
TTITLE2=Nelson, Willie - Mamas, Don't Let Your Babies Grow Up To Be Cowboys
TTITLE3=Gentry, Bobbie - Ode To Billy Joe
TTITLE4=Cash, Johnny - Ring Of Fire
TTITLE5=Riley, Jeannie C. - Harper Valley PTA
TTITLE6=Milsap, Ronnie - (There's) No Getting Over Me
TTITLE7=Newton, Juice - Angel Of The Mourning
EXTD=
EXTT0=
EXTT1=
EXTT2=
EXTT3=
EXTT4=
EXTT5=
EXTT6=
EXTT7=
PLAYORDER=
